<svg id="图层_1" data-name="图层 1" xmlns="http://www.w3.org/2000/svg" viewBox="0 0 168 36.6"><defs><style>.cls-1{fill:#fff;}</style></defs><title>辰栖科技</title><path class="cls-1" d="M36.26,23.09V20.9a1.25,1.25,0,0,0,.86-.41,1.45,1.45,0,0,0,.22-.82V5.88a3,3,0,0,1,.87-2.26,2.79,2.79,0,0,1,1.21-.69,6.57,6.57,0,0,1,1.54-.16H58.32V5H41Q39.5,5,39.5,6.35V19.26a4.13,4.13,0,0,1-.92,2.8A3.32,3.32,0,0,1,36.26,23.09Zm4.79-10V10.87H58.27v2.21H44.72v7q0,.81.88.81h3.32v2.23H45.2A4.75,4.75,0,0,1,43.85,23a1.75,1.75,0,0,1-.8-.52,2.73,2.73,0,0,1-.55-1.87V13.08Zm.07-4.15V6.72H57.94V8.93Zm9,4.69h2.53l1.05,1.93h4.56v2.21H54.86l.39.78Q56.48,20.9,58,20.9l.3,0v2.18a5.08,5.08,0,0,1-2.54-.67,7.24,7.24,0,0,1-2.43-2.83Z"/><path class="cls-1" d="M60.59,23V20.9a.37.37,0,0,0,.35-.16,1.77,1.77,0,0,0,.16-.84l.17-12h2l-.17,12.66a2.38,2.38,0,0,1-.88,1.84A2.67,2.67,0,0,1,60.59,23Zm.23-16.29V4.45h3.29V2.77h2.21V4.45h3V6.66h-3V23H64.11V6.66ZM67.3,23V7.82h1.87V23ZM73.8,7.11V5H70.4V2.8H82.65V5H79.05v2.1a5.29,5.29,0,0,1,1.73.25q1.86.74,1.86,3.29v9.24a3.11,3.11,0,0,1-.91,2.32,3,3,0,0,1-2.24.9H73.24a2.89,2.89,0,0,1-1.56-.54,3.16,3.16,0,0,1-1.28-2.88V10.5a3.62,3.62,0,0,1,.44-2,3.19,3.19,0,0,1,1.47-1.21A4.3,4.3,0,0,1,73.8,7.11Zm6.64,11.61H79.18a2,2,0,0,1-1.53-.6,2,2,0,0,1-.58-1.46V9.32H75.79v3.4a7.59,7.59,0,0,1-.7,3.46,4.86,4.86,0,0,1-1.23,1.56,13.18,13.18,0,0,1-1.25.88v.8q0,1.47,1.35,1.47H78.8q1.66,0,1.65-1.47ZM72.61,16a3.74,3.74,0,0,0,.91-1.24,5.74,5.74,0,0,0,.29-2V9.34a1.29,1.29,0,0,0-1.19,1.41Zm3.19-8.84h1.28V5H75.79Zm4.64,9.41V11a1.74,1.74,0,0,0-.49-1.41,1.57,1.57,0,0,0-.9-.3v6.52a.61.61,0,0,0,.7.68Z"/><path class="cls-1" d="M85.16,23.06V21h.06q.44,0,.47-1.16l.13-9.51h2L87.77,19a10.44,10.44,0,0,1-.19,2.34A2.44,2.44,0,0,1,85.16,23.06Zm.23-14V6.85h3.29V5.15H85.43v-2h8.43v2h-3V6.85h3V9h-3V23.14H88.68V9Zm6.48,14.12V10.29h1.87V23.14Zm3.37-3.9V17h8.25V2.84h2.21V17h1.53v2.28h-1.53v3.94h-2.21V19.24Zm0-12.17V4.75h6.59V7.06Zm0,6.25V11h6.59v2.32Z"/><path class="cls-1" d="M109.76,16.06V13.74a7.12,7.12,0,0,0,1.79-.41q.38-.16,1.24-.58V7.22h-3V4.89h3v-2H115v2h2.63V7.22H115v4.19a10,10,0,0,1,2.43-.93v2.16A14.76,14.76,0,0,0,115,13.9v6a3.17,3.17,0,0,1-1.24,2.73,3.9,3.9,0,0,1-2.29.57l-1,0v-2.2l.57,0a2.09,2.09,0,0,0,1.43-.38,1.65,1.65,0,0,0,.36-1.19V15.29a14.21,14.21,0,0,1-1.86.61Q110.62,16,109.76,16.06Zm9,7.08V20.85a24.17,24.17,0,0,0,4.48-2.14A26.45,26.45,0,0,1,120,15.38q-.42-.55-1.05-1.58h2.54a20.18,20.18,0,0,0,1.89,2.1q.55.51,1.68,1.47a23.88,23.88,0,0,0,3.4-3.13q.91-1,.91-1.4a.35.35,0,0,0-.21-.33,3.34,3.34,0,0,0-1-.07h-9.48V10.2h5.4V6.91h-5.4V4.7h5.4V2.83h2.21V4.7h5.39V6.91h-5.39V10.2q2.36,0,2.92.07a2.54,2.54,0,0,1,1.87,1.06,2.39,2.39,0,0,1,.47,1.43,4.27,4.27,0,0,1-1.25,2.65,32,32,0,0,1-3.44,3.29A22.29,22.29,0,0,0,129.24,20a14.27,14.27,0,0,0,2.51.87l-.06,2.22A21,21,0,0,1,128,21.79a29.65,29.65,0,0,1-2.91-1.73A27.94,27.94,0,0,1,122,21.94,20.74,20.74,0,0,1,118.75,23.14Z"/><path class="cls-1" d="M60,28.2a3.55,3.55,0,0,0-1-.62,3.18,3.18,0,0,0-1.14-.21,2.52,2.52,0,0,0-1.89.75,2.9,2.9,0,0,0,0,3.82,2.36,2.36,0,0,0,1.79.75,3.26,3.26,0,0,0,1.2-.22A3.79,3.79,0,0,0,60,31.78v1.3a3.4,3.4,0,0,1-1,.5,4.36,4.36,0,0,1-2.69-.1,3.53,3.53,0,0,1-2-2,4,4,0,0,1,0-2.93,3.63,3.63,0,0,1,2-2,4,4,0,0,1,1.48-.27,3.87,3.87,0,0,1,1.19.18,4.17,4.17,0,0,1,1.1.55Z"/><path class="cls-1" d="M61.43,33.56V26.48h1.15v2.61h3.48V26.48h1.15v7.08H66.06V30.12H62.58v3.44Z"/><path class="cls-1" d="M68.84,33.56V26.48h4v1H70v1.78h2.8v1H70v2.29h2.8v1Z"/><path class="cls-1" d="M74.11,33.56V26.19l4.5,4.33.37.39q.19.21.4.47V26.48h1.06v7.36l-4.59-4.41q-.18-.18-.36-.38t-.33-.42v4.92Z"/><path class="cls-1" d="M81.26,33.56l2.3-3.71-2-3.38h1.21l1,1.73q.08.14.3.56l.07.14.17-.32.22-.37,1.08-1.74h1.18l-2.07,3.36,2.23,3.72H85.67l-1.19-2,0,0-.36-.68-.18.34-.21.36-1.24,2Z"/><path class="cls-1" d="M87.76,33.56V26.48h1.15v7.08Z"/><path class="cls-1" d="M92.85,27.45v6.1H91.7v-6.1H89.82v-1h4.91v1Z"/><path class="cls-1" d="M95.6,33.56V26.48h4v1h-2.8v1.78h2.8v1h-2.8v2.29h2.8v1Z"/><path class="cls-1" d="M106.56,28.2a3.55,3.55,0,0,0-1-.62,3.18,3.18,0,0,0-1.14-.21,2.52,2.52,0,0,0-1.89.75,2.9,2.9,0,0,0,0,3.82,2.36,2.36,0,0,0,1.79.75,3.26,3.26,0,0,0,1.2-.22,3.79,3.79,0,0,0,1.09-.67v1.3a3.4,3.4,0,0,1-1,.5,4.36,4.36,0,0,1-2.69-.1,3.53,3.53,0,0,1-2-2,4,4,0,0,1,0-2.93,3.63,3.63,0,0,1,2-2,4,4,0,0,1,1.48-.27,3.87,3.87,0,0,1,1.19.18,4.17,4.17,0,0,1,1.1.55Z"/><path class="cls-1" d="M108,33.56V26.48h1.15v2.61h3.48V26.48h1.15v7.08h-1.15V30.12h-3.48v3.44Z"/><rect class="cls-1" x="36.3" y="28.45" width="15.92" height="0.99"/><rect class="cls-1" x="42.06" y="30.59" width="10.16" height="0.99"/><rect class="cls-1" x="115.78" y="28.45" width="15.92" height="0.99" transform="translate(247.48 57.89) rotate(-180)"/><rect class="cls-1" x="115.78" y="30.59" width="10.16" height="0.99" transform="translate(241.72 62.16) rotate(-180)"/></svg>